<svg id="visual" viewBox="0 0 900 600" width="900" height="600" xmlns="http://www.w3.org/2000/svg" xmlns:xlink="http://www.w3.org/1999/xlink" version="1.1"><rect x="0" y="0" width="900" height="600" fill="#94a1d7"></rect><defs><linearGradient id="grad1_0" x1="33.3%" y1="100%" x2="100%" y2="0%"><stop offset="20%" stop-color="#0c1850" stop-opacity="1"></stop><stop offset="80%" stop-color="#0c1850" stop-opacity="1"></stop></linearGradient></defs><defs><linearGradient id="grad1_1" x1="33.3%" y1="100%" x2="100%" y2="0%"><stop offset="20%" stop-color="#0c1850" stop-opacity="1"></stop><stop offset="80%" stop-color="#3b427b" stop-opacity="1"></stop></linearGradient></defs><defs><linearGradient id="grad1_2" x1="33.3%" y1="100%" x2="100%" y2="0%"><stop offset="20%" stop-color="#6670a8" stop-opacity="1"></stop><stop offset="80%" stop-color="#3b427b" stop-opacity="1"></stop></linearGradient></defs><defs><linearGradient id="grad1_3" x1="33.3%" y1="100%" x2="100%" y2="0%"><stop offset="20%" stop-color="#6670a8" stop-opacity="1"></stop><stop offset="80%" stop-color="#94a1d7" stop-opacity="1"></stop></linearGradient></defs><defs><linearGradient id="grad2_0" x1="0%" y1="100%" x2="66.7%" y2="0%"><stop offset="20%" stop-color="#0c1850" stop-opacity="1"></stop><stop offset="80%" stop-color="#0c1850" stop-opacity="1"></stop></linearGradient></defs><defs><linearGradient id="grad2_1" x1="0%" y1="100%" x2="66.7%" y2="0%"><stop offset="20%" stop-color="#3b427b" stop-opacity="1"></stop><stop offset="80%" stop-color="#0c1850" stop-opacity="1"></stop></linearGradient></defs><defs><linearGradient id="grad2_2" x1="0%" y1="100%" x2="66.7%" y2="0%"><stop offset="20%" stop-color="#3b427b" stop-opacity="1"></stop><stop offset="80%" stop-color="#6670a8" stop-opacity="1"></stop></linearGradient></defs><defs><linearGradient id="grad2_3" x1="0%" y1="100%" x2="66.7%" y2="0%"><stop offset="20%" stop-color="#94a1d7" stop-opacity="1"></stop><stop offset="80%" stop-color="#6670a8" stop-opacity="1"></stop></linearGradient></defs><g transform="translate(900, 600)"><path d="M-540.8 0C-532.1 -103.9 -523.3 -207.9 -468.4 -270.4C-413.4 -333 -312.3 -354.1 -226.5 -392.3C-140.7 -430.5 -70.4 -485.7 0 -540.8L0 0Z" fill="#7d88bf"></path><path d="M-405.6 0C-399.1 -77.9 -392.5 -155.9 -351.3 -202.8C-310.1 -249.7 -234.2 -265.6 -169.9 -294.2C-105.6 -322.9 -52.8 -364.2 0 -405.6L0 0Z" fill="#505892"></path><path d="M-270.4 0C-266 -52 -261.7 -103.9 -234.2 -135.2C-206.7 -166.5 -156.1 -177.1 -113.3 -196.2C-70.4 -215.2 -35.2 -242.8 0 -270.4L0 0Z" fill="#252c65"></path><path d="M-135.2 0C-133 -26 -130.8 -52 -117.1 -67.6C-103.4 -83.2 -78.1 -88.5 -56.6 -98.1C-35.2 -107.6 -17.6 -121.4 0 -135.2L0 0Z" fill="#0c1850"></path></g><g transform="translate(0, 0)"><path d="M540.8 0C489.4 72.5 437.9 145 399.2 230.5C360.6 316 334.8 414.5 270.4 468.4C206 522.3 103 531.5 0 540.8L0 0Z" fill="#7d88bf"></path><path d="M405.6 0C367 54.4 328.4 108.8 299.4 172.9C270.5 237 251.1 310.9 202.8 351.3C154.5 391.7 77.3 398.7 0 405.6L0 0Z" fill="#505892"></path><path d="M270.4 0C244.7 36.3 218.9 72.5 199.6 115.2C180.3 158 167.4 207.2 135.2 234.2C103 261.1 51.5 265.8 0 270.4L0 0Z" fill="#252c65"></path><path d="M135.2 0C122.3 18.1 109.5 36.3 99.8 57.6C90.2 79 83.7 103.6 67.6 117.1C51.5 130.6 25.8 132.9 0 135.2L0 0Z" fill="#0c1850"></path></g></svg>