<svg id="visual" viewBox="0 0 900 900" width="900" height="900" xmlns="http://www.w3.org/2000/svg" xmlns:xlink="http://www.w3.org/1999/xlink" version="1.1"><rect x="0" y="0" width="900" height="900" fill="#0c1850"></rect><path d="M189 0L184.3 21.5C179.7 43 170.3 86 168.5 128.8C166.7 171.7 172.3 214.3 177.8 257.2C183.3 300 188.7 343 194.7 385.8C200.7 428.7 207.3 471.3 204.5 514.2C201.7 557 189.3 600 187.2 642.8C185 685.7 193 728.3 190.5 771.2C188 814 175 857 168.5 878.5L162 900L0 900L0 878.5C0 857 0 814 0 771.2C0 728.3 0 685.7 0 642.8C0 600 0 557 0 514.2C0 471.3 0 428.7 0 385.8C0 343 0 300 0 257.2C0 214.3 0 171.7 0 128.8C0 86 0 43 0 21.5L0 0Z" fill="#001633"></path><path d="M152 0L148.2 21.5C144.3 43 136.7 86 127.8 128.8C119 171.7 109 214.3 105.3 257.2C101.7 300 104.3 343 104.8 385.8C105.3 428.7 103.7 471.3 102 514.2C100.3 557 98.7 600 99.2 642.8C99.7 685.7 102.3 728.3 104.2 771.2C106 814 107 857 107.5 878.5L108 900L0 900L0 878.5C0 857 0 814 0 771.2C0 728.3 0 685.7 0 642.8C0 600 0 557 0 514.2C0 471.3 0 428.7 0 385.8C0 343 0 300 0 257.2C0 214.3 0 171.7 0 128.8C0 86 0 43 0 21.5L0 0Z" fill="#002049"></path><path d="M102 0L98.2 21.5C94.3 43 86.7 86 90.3 128.8C94 171.7 109 214.3 108.3 257.2C107.7 300 91.3 343 88.7 385.8C86 428.7 97 471.3 101.2 514.2C105.3 557 102.7 600 99.7 642.8C96.7 685.7 93.3 728.3 94.8 771.2C96.3 814 102.7 857 105.8 878.5L109 900L0 900L0 878.5C0 857 0 814 0 771.2C0 728.3 0 685.7 0 642.8C0 600 0 557 0 514.2C0 471.3 0 428.7 0 385.8C0 343 0 300 0 257.2C0 214.3 0 171.7 0 128.8C0 86 0 43 0 21.5L0 0Z" fill="#062a5f"></path><path d="M54 0L52.3 21.5C50.7 43 47.3 86 44.2 128.8C41 171.7 38 214.3 40.8 257.2C43.7 300 52.3 343 53.5 385.8C54.7 428.7 48.3 471.3 43.5 514.2C38.7 557 35.3 600 41.8 642.8C48.3 685.7 64.7 728.3 66.5 771.2C68.3 814 55.7 857 49.3 878.5L43 900L0 900L0 878.5C0 857 0 814 0 771.2C0 728.3 0 685.7 0 642.8C0 600 0 557 0 514.2C0 471.3 0 428.7 0 385.8C0 343 0 300 0 257.2C0 214.3 0 171.7 0 128.8C0 86 0 43 0 21.5L0 0Z" fill="#153376"></path></svg>