<svg id="visual" viewBox="0 0 900 900" width="900" height="900" xmlns="http://www.w3.org/2000/svg" xmlns:xlink="http://www.w3.org/1999/xlink" version="1.1"><rect x="0" y="0" width="900" height="900" fill="#0c1850"></rect><path d="M159 0L166.2 21.5C173.3 43 187.7 86 186.5 128.8C185.3 171.7 168.7 214.3 164.7 257.2C160.7 300 169.3 343 170.2 385.8C171 428.7 164 471.3 166.3 514.2C168.7 557 180.3 600 191 642.8C201.7 685.7 211.3 728.3 203.2 771.2C195 814 169 857 156 878.5L143 900L0 900L0 878.5C0 857 0 814 0 771.2C0 728.3 0 685.7 0 642.8C0 600 0 557 0 514.2C0 471.3 0 428.7 0 385.8C0 343 0 300 0 257.2C0 214.3 0 171.7 0 128.8C0 86 0 43 0 21.5L0 0Z" fill="#53d8bb"></path><path d="M158 0L151 21.5C144 43 130 86 128.3 128.8C126.7 171.7 137.3 214.3 134.5 257.2C131.7 300 115.3 343 116.8 385.8C118.3 428.7 137.7 471.3 142.2 514.2C146.7 557 136.3 600 128.3 642.8C120.3 685.7 114.7 728.3 119 771.2C123.3 814 137.7 857 144.8 878.5L152 900L0 900L0 878.5C0 857 0 814 0 771.2C0 728.3 0 685.7 0 642.8C0 600 0 557 0 514.2C0 471.3 0 428.7 0 385.8C0 343 0 300 0 257.2C0 214.3 0 171.7 0 128.8C0 86 0 43 0 21.5L0 0Z" fill="#00a4c0"></path><path d="M103 0L98 21.5C93 43 83 86 82.3 128.8C81.7 171.7 90.3 214.3 92.8 257.2C95.3 300 91.7 343 90.2 385.8C88.7 428.7 89.3 471.3 87.2 514.2C85 557 80 600 80.8 642.8C81.7 685.7 88.3 728.3 92.8 771.2C97.3 814 99.7 857 100.8 878.5L102 900L0 900L0 878.5C0 857 0 814 0 771.2C0 728.3 0 685.7 0 642.8C0 600 0 557 0 514.2C0 471.3 0 428.7 0 385.8C0 343 0 300 0 257.2C0 214.3 0 171.7 0 128.8C0 86 0 43 0 21.5L0 0Z" fill="#006ca3"></path><path d="M66 0L60.8 21.5C55.7 43 45.3 86 40.5 128.8C35.7 171.7 36.3 214.3 43.3 257.2C50.3 300 63.7 343 68 385.8C72.3 428.7 67.7 471.3 67 514.2C66.3 557 69.7 600 69.5 642.8C69.3 685.7 65.7 728.3 59.2 771.2C52.7 814 43.3 857 38.7 878.5L34 900L0 900L0 878.5C0 857 0 814 0 771.2C0 728.3 0 685.7 0 642.8C0 600 0 557 0 514.2C0 471.3 0 428.7 0 385.8C0 343 0 300 0 257.2C0 214.3 0 171.7 0 128.8C0 86 0 43 0 21.5L0 0Z" fill="#153376"></path></svg>