<svg id="visual" viewBox="0 0 900 900" width="900" height="900" xmlns="http://www.w3.org/2000/svg" xmlns:xlink="http://www.w3.org/1999/xlink" version="1.1"><rect x="0" y="0" width="900" height="900" fill="#0c1850"></rect><path d="M187 0L183 21.5C179 43 171 86 170.3 128.8C169.7 171.7 176.3 214.3 182.8 257.2C189.3 300 195.7 343 196.8 385.8C198 428.7 194 471.3 192.7 514.2C191.3 557 192.7 600 195.8 642.8C199 685.7 204 728.3 204.5 771.2C205 814 201 857 199 878.5L197 900L0 900L0 878.5C0 857 0 814 0 771.2C0 728.3 0 685.7 0 642.8C0 600 0 557 0 514.2C0 471.3 0 428.7 0 385.8C0 343 0 300 0 257.2C0 214.3 0 171.7 0 128.8C0 86 0 43 0 21.5L0 0Z" fill="#4f83ca"></path><path d="M186 0L175.3 21.5C164.7 43 143.3 86 141.5 128.8C139.7 171.7 157.3 214.3 163.3 257.2C169.3 300 163.7 343 158 385.8C152.3 428.7 146.7 471.3 138.8 514.2C131 557 121 600 127.7 642.8C134.3 685.7 157.7 728.3 166 771.2C174.3 814 167.7 857 164.3 878.5L161 900L0 900L0 878.5C0 857 0 814 0 771.2C0 728.3 0 685.7 0 642.8C0 600 0 557 0 514.2C0 471.3 0 428.7 0 385.8C0 343 0 300 0 257.2C0 214.3 0 171.7 0 128.8C0 86 0 43 0 21.5L0 0Z" fill="#3778d3"></path><path d="M130 0L125.3 21.5C120.7 43 111.3 86 110.8 128.8C110.3 171.7 118.7 214.3 120 257.2C121.3 300 115.7 343 108.7 385.8C101.7 428.7 93.3 471.3 92.5 514.2C91.7 557 98.3 600 100.3 642.8C102.3 685.7 99.7 728.3 102.2 771.2C104.7 814 112.3 857 116.2 878.5L120 900L0 900L0 878.5C0 857 0 814 0 771.2C0 728.3 0 685.7 0 642.8C0 600 0 557 0 514.2C0 471.3 0 428.7 0 385.8C0 343 0 300 0 257.2C0 214.3 0 171.7 0 128.8C0 86 0 43 0 21.5L0 0Z" fill="#1c6cdb"></path><path d="M65 0L64.7 21.5C64.3 43 63.7 86 65.8 128.8C68 171.7 73 214.3 72.2 257.2C71.3 300 64.7 343 68.5 385.8C72.3 428.7 86.7 471.3 87.8 514.2C89 557 77 600 72.2 642.8C67.3 685.7 69.7 728.3 69.8 771.2C70 814 68 857 67 878.5L66 900L0 900L0 878.5C0 857 0 814 0 771.2C0 728.3 0 685.7 0 642.8C0 600 0 557 0 514.2C0 471.3 0 428.7 0 385.8C0 343 0 300 0 257.2C0 214.3 0 171.7 0 128.8C0 86 0 43 0 21.5L0 0Z" fill="#015ee0"></path><path d="M26 0L29.3 21.5C32.7 43 39.3 86 44.3 128.8C49.3 171.7 52.7 214.3 53.2 257.2C53.7 300 51.3 343 48.2 385.8C45 428.7 41 471.3 37.7 514.2C34.3 557 31.7 600 35.2 642.8C38.7 685.7 48.3 728.3 49.5 771.2C50.7 814 43.3 857 39.7 878.5L36 900L0 900L0 878.5C0 857 0 814 0 771.2C0 728.3 0 685.7 0 642.8C0 600 0 557 0 514.2C0 471.3 0 428.7 0 385.8C0 343 0 300 0 257.2C0 214.3 0 171.7 0 128.8C0 86 0 43 0 21.5L0 0Z" fill="#0d4ee3"></path></svg>