<svg id="visual" viewBox="0 0 900 600" width="900" height="600" xmlns="http://www.w3.org/2000/svg" xmlns:xlink="http://www.w3.org/1999/xlink" version="1.1"><rect x="0" y="0" width="900" height="600" fill="#0c1850"></rect><path d="M0 163L21.5 165C43 167 86 171 128.8 184.7C171.7 198.3 214.3 221.7 257.2 233C300 244.3 343 243.7 385.8 240.2C428.7 236.7 471.3 230.3 514.2 221.5C557 212.7 600 201.3 642.8 192.7C685.7 184 728.3 178 771.2 187C814 196 857 220 878.5 232L900 244L900 0L878.5 0C857 0 814 0 771.2 0C728.3 0 685.7 0 642.8 0C600 0 557 0 514.2 0C471.3 0 428.7 0 385.8 0C343 0 300 0 257.2 0C214.3 0 171.7 0 128.8 0C86 0 43 0 21.5 0L0 0Z" fill="#cdcaff"></path><path d="M0 119L21.5 129.3C43 139.7 86 160.3 128.8 170.8C171.7 181.3 214.3 181.7 257.2 184.2C300 186.7 343 191.3 385.8 189.2C428.7 187 471.3 178 514.2 168.3C557 158.7 600 148.3 642.8 144C685.7 139.7 728.3 141.3 771.2 149.3C814 157.3 857 171.7 878.5 178.8L900 186L900 0L878.5 0C857 0 814 0 771.2 0C728.3 0 685.7 0 642.8 0C600 0 557 0 514.2 0C471.3 0 428.7 0 385.8 0C343 0 300 0 257.2 0C214.3 0 171.7 0 128.8 0C86 0 43 0 21.5 0L0 0Z" fill="#9c99d1"></path><path d="M0 90L21.5 98.3C43 106.7 86 123.3 128.8 128.3C171.7 133.3 214.3 126.7 257.2 118.7C300 110.7 343 101.3 385.8 102C428.7 102.7 471.3 113.3 514.2 113.8C557 114.3 600 104.7 642.8 107.3C685.7 110 728.3 125 771.2 128.3C814 131.7 857 123.3 878.5 119.2L900 115L900 0L878.5 0C857 0 814 0 771.2 0C728.3 0 685.7 0 642.8 0C600 0 557 0 514.2 0C471.3 0 428.7 0 385.8 0C343 0 300 0 257.2 0C214.3 0 171.7 0 128.8 0C86 0 43 0 21.5 0L0 0Z" fill="#6d6aa4"></path><path d="M0 80L21.5 84.3C43 88.7 86 97.3 128.8 94C171.7 90.7 214.3 75.3 257.2 69C300 62.7 343 65.3 385.8 71.3C428.7 77.3 471.3 86.7 514.2 89.2C557 91.7 600 87.3 642.8 82.7C685.7 78 728.3 73 771.2 69C814 65 857 62 878.5 60.5L900 59L900 0L878.5 0C857 0 814 0 771.2 0C728.3 0 685.7 0 642.8 0C600 0 557 0 514.2 0C471.3 0 428.7 0 385.8 0C343 0 300 0 257.2 0C214.3 0 171.7 0 128.8 0C86 0 43 0 21.5 0L0 0Z" fill="#3f3f79"></path><path d="M0 30L21.5 34.3C43 38.7 86 47.3 128.8 51C171.7 54.7 214.3 53.3 257.2 50.2C300 47 343 42 385.8 45.5C428.7 49 471.3 61 514.2 59.7C557 58.3 600 43.7 642.8 37.7C685.7 31.7 728.3 34.3 771.2 35.2C814 36 857 35 878.5 34.5L900 34L900 0L878.5 0C857 0 814 0 771.2 0C728.3 0 685.7 0 642.8 0C600 0 557 0 514.2 0C471.3 0 428.7 0 385.8 0C343 0 300 0 257.2 0C214.3 0 171.7 0 128.8 0C86 0 43 0 21.5 0L0 0Z" fill="#0c1850"></path></svg>