<svg id="visual" viewBox="0 0 900 600" width="900" height="600" xmlns="http://www.w3.org/2000/svg" xmlns:xlink="http://www.w3.org/1999/xlink" version="1.1"><path d="M0 233L11.5 241C23 249 46 265 69 268.3C92 271.7 115 262.3 138.2 257.3C161.3 252.3 184.7 251.7 207.8 259.3C231 267 254 283 277 281.2C300 279.3 323 259.7 346 260.5C369 261.3 392 282.7 415.2 289.5C438.3 296.3 461.7 288.7 484.8 284.5C508 280.3 531 279.7 554 282.5C577 285.3 600 291.7 623 302.5C646 313.3 669 328.7 692.2 327.3C715.3 326 738.7 308 761.8 292.2C785 276.3 808 262.7 831 251.5C854 240.3 877 231.7 888.5 227.3L900 223L900 0L888.5 0C877 0 854 0 831 0C808 0 785 0 761.8 0C738.7 0 715.3 0 692.2 0C669 0 646 0 623 0C600 0 577 0 554 0C531 0 508 0 484.8 0C461.7 0 438.3 0 415.2 0C392 0 369 0 346 0C323 0 300 0 277 0C254 0 231 0 207.8 0C184.7 0 161.3 0 138.2 0C115 0 92 0 69 0C46 0 23 0 11.5 0L0 0Z" fill="#ffffff"></path><path d="M0 250L11.5 240.2C23 230.3 46 210.7 69 205.7C92 200.7 115 210.3 138.2 215.3C161.3 220.3 184.7 220.7 207.8 220.5C231 220.3 254 219.7 277 217.2C300 214.7 323 210.3 346 203.3C369 196.3 392 186.7 415.2 187C438.3 187.3 461.7 197.7 484.8 205.8C508 214 531 220 554 215.3C577 210.7 600 195.3 623 187.5C646 179.7 669 179.3 692.2 187.3C715.3 195.3 738.7 211.7 761.8 215.5C785 219.3 808 210.7 831 212.5C854 214.3 877 226.7 888.5 232.8L900 239L900 0L888.5 0C877 0 854 0 831 0C808 0 785 0 761.8 0C738.7 0 715.3 0 692.2 0C669 0 646 0 623 0C600 0 577 0 554 0C531 0 508 0 484.8 0C461.7 0 438.3 0 415.2 0C392 0 369 0 346 0C323 0 300 0 277 0C254 0 231 0 207.8 0C184.7 0 161.3 0 138.2 0C115 0 92 0 69 0C46 0 23 0 11.5 0L0 0Z" fill="#ada9c2"></path><path d="M0 143L11.5 141.7C23 140.3 46 137.7 69 132.3C92 127 115 119 138.2 124.5C161.3 130 184.7 149 207.8 155.7C231 162.3 254 156.7 277 149.3C300 142 323 133 346 128.7C369 124.3 392 124.7 415.2 129.8C438.3 135 461.7 145 484.8 142.3C508 139.7 531 124.3 554 126C577 127.7 600 146.3 623 143.8C646 141.3 669 117.7 692.2 107.3C715.3 97 738.7 100 761.8 103.2C785 106.3 808 109.7 831 122.7C854 135.7 877 158.3 888.5 169.7L900 181L900 0L888.5 0C877 0 854 0 831 0C808 0 785 0 761.8 0C738.7 0 715.3 0 692.2 0C669 0 646 0 623 0C600 0 577 0 554 0C531 0 508 0 484.8 0C461.7 0 438.3 0 415.2 0C392 0 369 0 346 0C323 0 300 0 277 0C254 0 231 0 207.8 0C184.7 0 161.3 0 138.2 0C115 0 92 0 69 0C46 0 23 0 11.5 0L0 0Z" fill="#605b87"></path><path d="M0 60L11.5 60.2C23 60.3 46 60.7 69 61.5C92 62.3 115 63.7 138.2 64.2C161.3 64.7 184.7 64.3 207.8 70.5C231 76.7 254 89.3 277 94.3C300 99.3 323 96.7 346 98.2C369 99.7 392 105.3 415.2 96.8C438.3 88.3 461.7 65.7 484.8 61.5C508 57.3 531 71.7 554 74.5C577 77.3 600 68.7 623 66C646 63.3 669 66.7 692.2 75.2C715.3 83.7 738.7 97.3 761.8 103.5C785 109.7 808 108.3 831 105.3C854 102.3 877 97.7 888.5 95.3L900 93L900 0L888.5 0C877 0 854 0 831 0C808 0 785 0 761.8 0C738.7 0 715.3 0 692.2 0C669 0 646 0 623 0C600 0 577 0 554 0C531 0 508 0 484.8 0C461.7 0 438.3 0 415.2 0C392 0 369 0 346 0C323 0 300 0 277 0C254 0 231 0 207.8 0C184.7 0 161.3 0 138.2 0C115 0 92 0 69 0C46 0 23 0 11.5 0L0 0Z" fill="#0c1850"></path></svg>