<svg xmlns="http://www.w3.org/2000/svg" viewBox="0 0 600 500" id="businessman-and-personal-financial-target"><defs><clipPath id="a"><rect width="369" height="248.121" x="124.515" y="111.126" fill="none"></rect></clipPath></defs><g data-name="Ñëîé 7"><rect width="121.972" height="23.653" x="396.606" y="391.822" fill="#f79a45"></rect><rect width="71.185" height="23.653" x="439.067" y="391.822" fill="#f8ad43"></rect><rect width="11.403" height="23.653" x="486.367" y="391.822" fill="#f8d24a"></rect><rect width="121.972" height="3.527" x="396.606" y="411.947" style="mix-blend-mode:multiply" fill="#f79a45" opacity=".5"></rect><rect width="121.972" height="23.653" x="388.271" y="368.04" fill="#f79a45"></rect><rect width="71.185" height="23.653" x="430.733" y="368.04" fill="#f8ad43"></rect><rect width="11.403" height="23.653" x="478.033" y="368.04" fill="#f8d24a"></rect><rect width="121.972" height="3.527" x="388.271" y="388.166" style="mix-blend-mode:multiply" fill="#f79a45" opacity=".5"></rect><rect width="30.841" height="154.985" x="229.657" y="152.345" fill="#badefb"></rect><polygon fill="#badefb" points="285.785 164.722 245.077 91.468 204.374 164.722 285.785 164.722"></polygon><rect width="30.841" height="154.985" x="310.388" y="123.123" fill="#badefb"></rect><polygon fill="#badefb" points="366.515 135.501 325.808 62.247 285.105 135.501 366.515 135.501"></polygon><rect width="30.841" height="154.985" x="148.926" y="179.681" fill="#badefb"></rect><polygon fill="#badefb" points="205.054 192.058 164.346 118.805 123.643 192.058 205.054 192.058"></polygon><path fill="#ff7e33" d="M93.74216,185.5535c30.183-1.3404,41.94549,14.9957,46.19769,24.3078,8.5023,6.8102,16.7019,14.1613,24.727,21.7869-17.0039-31.1732-1.1626-52.0271-1.1626-52.0271,19.4039,35.6462,12.5005,53.5661,8.8663,59.4184,4.9018,4.9063,9.6577,10.0008,14.3488,15.1864-9.7072-36.0462,11.0717-51.7182,11.0717-51.7182,9.4229,37.4028.56441,53.1487-4.6633,58.8113,7.5288,8.7012,14.72371,17.7805,21.6263,27.1269-7.2854-39.182,16.1677-52.4944,16.1677-52.4944,5.5995,40.4659-6.335,54.2989-11.8531,58.4404q9.911,13.8804,18.8404,28.5421h-5.9352c-.0148-.024-.0291-.0483-.044-.0723-.0892.0252-.17539.0474-.2643.0723h-24.4514v3.3579c-20.5673-.8741-26.0004-13.1266-26.0004-13.1266,19.86071-9.8394,33.8579-7.2295,42.7891-2.4291-6.28539-9.4824-12.78939-18.7987-19.7219-27.7217-1.2111,2.2561-12.99849,21.5478-55.12249,6.5932,0,0,17.15579-26.7273,54.78319-7.0393a428.24831,428.24831,0,0,0-35.7304-40.2658c-40.5196,23.8378-54.43279,4.1058-54.43279,4.1058,22.97109-18.6661,40.16779-14.231,48.92869-9.3927-7.8389-7.5137-15.86069-14.7214-24.1508-21.426C95.52856,209.6283,93.74216,185.5535,93.74216,185.5535Z"></path><path fill="#badefb" d="M517.88484,278.9825c-6.1377,4.8137-12.034,9.9777-17.79209,15.3187,11.76179-21.3176-.6536-34.6886-.6536-34.6886-13.4199,24.3751-7.7516,36.0842-4.872,39.8632-3.5098,3.428-6.9056,6.9764-10.2503,10.5834,6.1814-24.3245-9.7625-34.083-9.7625-34.083-5.92989,25.2189,1.13211,35.4162,5.1937,39.0166-5.357,6.0413-10.454,12.3235-15.3254,18.7739,4.285-26.3338-13.58319-34.4332-13.58319-34.4332-2.99091,27.1337,6.30779,35.9566,10.54149,38.5344a303.44443,303.44443,0,0,0-28.9618,48.479c-1.0146,2.1353,2.3526,3.6097,3.3687,1.4709a296.593,296.593,0,0,1,16.8395-30.5683c31.0888,6.4176,37.5147-8.1159,37.5147-8.1159-15.0893-5.9039-25.445-3.7081-31.961-.219,4.4073-6.5208,8.98241-12.9382,13.8885-19.1076.9685,1.4629,10.3172,13.926,41.27459,2.5889,0,0-13.56679-17.2397-41.03459-2.8972a298.78045,298.78045,0,0,1,25.4528-27.9856c30.89511,14.5515,40.68789.9549,40.68789.9549-17.6654-11.6809-30.3523-8.1647-36.74029-4.656,5.62289-5.2604,11.39079-10.3231,17.37329-15.0595,31.8939-5.3771,32.5219-21.4697,32.5219-21.4697C529.07094,261.377,520.78184,272.6415,517.88484,278.9825Z"></path><path fill="#53b1fb" d="M435.31555 356.6422a18.54376 18.54376 0 00-6.0677-3.1614 21.413 21.413 0 00-7.1482-.9472 22.91648 22.91648 0 00-4.05319.5076q-.81347.18465-1.65671.4309l.0062-.0084c2.771-3.7442 5.763-7.4417 8.763-11.1903q2.823-3.5244 5.6398-7.0822l.0088-.0112a14.12479 14.12479 0 001.748 2.8298 15.92933 15.92933 0 002.55891 2.5541 18.3262 18.3262 0 006.07489 3.1467 21.69884 21.69884 0 007.1556.9324 23.14693 23.14693 0 004.0522-.5056 20.87387 20.87387 0 004.54031-1.5064 13.30453 13.30453 0 00-2.07141-3.5536 16.07872 16.07872 0 00-2.55959-2.5525 18.53972 18.53972 0 00-6.06791-3.1613 21.4109 21.4109 0 00-7.1484-.9472 22.834 22.834 0 00-7.2564 1.4542l.0074-.0095q4.52265-5.712 8.9594-11.5056 3.07636-3.9873 6.0735-8.0237l.00041-.0006a11.40964 11.40964 0 001.59979 2.2056 12.16129 12.16129 0 002.3684 1.9648 13.417 13.417 0 005.46081 1.9167 17.3235 17.3235 0 006.27759-.3553 21.1583 21.1583 0 003.4973-1.1747 20.21784 20.21784 0 003.8666-2.2019 10.73446 10.73446 0 00-1.99949-2.99 12.32749 12.32749 0 00-2.36931-1.9631 13.574 13.574 0 00-5.4552-1.9318 17.08483 17.08483 0 00-6.2724.3404 20.93425 20.93425 0 00-3.498 1.1766c-.6419.2893-1.2938.6065-1.9686.987l.0027-.0035q3.79095-5.1348 7.4697-10.3438c1.2618-1.77 2.4903-3.5522 3.712-5.3396l.0105-.0146a10.57487 10.57487 0 002.4271 1.824 12.86963 12.86963 0 002.9192 1.1451 15.86394 15.86394 0 006.1175.2792 21.24019 21.24019 0 006.4334-1.9902 25.03951 25.03951 0 003.3551-1.9911 22.62491 22.62491 0 003.4979-3.0172 10.11023 10.11023 0 00-2.77659-2.1691 13.03642 13.03642 0 00-2.91941-1.1432 16.0332 16.0332 0 00-6.11559-.2944 20.94972 20.94972 0 00-6.43111 1.9751 24.74765 24.74765 0 00-3.3555 1.9929c-.6006.4336-1.20539.8955-1.8189 1.4211q1.0569-1.5585 2.1134-3.1168l3.4417-5.2967c1.1673-1.7592 2.24141-3.5636 3.362-5.3455l1.6611-2.6814.1757-.3032.00661-.0108a10.92377 10.92377 0 002.714 1.3247 14.0288 14.0288 0 003.16449.6293 17.88782 17.88782 0 006.3378-.6963 23.6521 23.6521 0 006.3486-2.902 26.87706 26.87706 0 003.1789-2.4191 23.40182 23.40182 0 003.1837-3.4159 10.363 10.363 0 00-3.1596-1.6244 14.1697 14.1697 0 00-3.1644-.6272 18.0643 18.0643 0 00-6.3379.6815 23.31986 23.31986 0 00-6.3485 2.8871 26.58837 26.58837 0 00-3.1789 2.4208q-.61005.5532-1.2203 1.1685l.0135-.0237c1.012-1.7394 2.0843-3.4738 3.0431-5.2412l3.0421-5.4841 2.8753-5.5451c.382-.7537.7572-1.5126 1.119-2.268.0055-.0014.0063-.007.0087-.011a13.06715 13.06715 0 003.4222.2176 18.27671 18.27671 0 003.4776-.5774 23.21171 23.21171 0 006.357-2.8353 28.0858 28.0858 0 005.6815-4.7319 28.82254 28.82254 0 002.54449-3.1986 22.87136 22.87136 0 002.2389-4.0557 12.59216 12.59216 0 00-3.7824-.2786 18.50206 18.50206 0 00-3.47709.5788 23.46231 23.46231 0 00-6.3615 2.8226 27.71868 27.71868 0 00-5.686 4.7195 28.0601 28.0601 0 00-2.2066 2.7438l.03131-.0651q1.92719-4.0833 3.66029-8.2057c.0136-.0035.0136-.0035.014-.0173q.417-.95475.8144-1.9243c.2859-.687.5651-1.3652.8375-2.0487l.0055-.014a21.22722 21.22722 0 003.6441-2.333 27.67014 27.67014 0 002.9856-2.7357 29.01809 29.01809 0 004.3823-6.0895 26.64217 26.64217 0 002.58959-6.7864 21.96766 21.96766 0 00.5079-3.699 15.05179 15.05179 0 00-.3026-4.0141 20.99248 20.99248 0 00-3.79449 2.4211 27.99866 27.99866 0 00-2.984 2.7365 29.37491 29.37491 0 00-4.3945 6.0845 26.34831 26.34831 0 00-2.6013 6.7818 21.71367 21.71367 0 00-.5066 3.6997 15.02246 15.02246 0 00.3075 3.9873l-.0016.0033c-.3354.7766-.684 1.5425-1.0325 2.3083q-.6504 1.4118-1.3074 2.8184l-.0138.0176q-1.77855 3.77265-3.697 7.4917l-.0056.0103c.0739-.2752.14571-.549.21071-.8191a21.74907 21.74907 0 00.52119-3.7016 17.81551 17.81551 0 00-.7819-6.3236 13.9547 13.9547 0 00-2.8407-5.1053 12.31423 12.31423 0 00-2.324-2.0177 10.49629 10.49629 0 00-3.25459-1.4669 20.80955 20.80955 0 00-1.45031 4.2513 22.01177 22.01177 0 00-.5195 3.7009 18.07626 18.07626 0 00.7681 6.3318 13.812 13.812 0 002.827 5.1131 12.17879 12.17879 0 002.32571 2.0169 10.8873 10.8873 0 002.79329 1.3175l-.0067.0128c-.4374.824-.8748 1.648-1.3327 2.4703-.0634.1209-.134.2507-.1974.3718l-3.0614 5.4404-3.2143 5.3625c-1.0469 1.7973-2.2139 3.5425-3.3205 5.3069l-.4975.7909-.0126.02a17.18954 17.18954 0 00.1042-3.5495 16.6119 16.6119 0 00-.6113-3.3609 13.86054 13.86054 0 00-2.7787-5.151 12.67312 12.67312 0 00-4.5349-3.3786 13.47931 13.47931 0 00-3.0383-.9111 12.9616 12.9616 0 00-3.832-.1101 16.58031 16.58031 0 00-.18119 4.1609 16.79948 16.79948 0 00.61279 3.3596 14.04864 14.04864 0 002.7669 5.1628 12.51879 12.51879 0 004.5232 3.3904 13.171 13.171 0 006.5587 1.0367l-.0038.006-.7492 1.1768-1.747 2.6134c-1.1665 1.7314-2.2934 3.4938-3.50659 5.2024l-3.59971 5.1434c-.78029 1.0806-1.5677 2.1701-2.3546 3.2456-.27169.3701-.5298.7367-.7944 1.0981l-.0105.0141a20.86845 20.86845 0 00.4969-2.8603 19.38981 19.38981 0 00.0181-3.5971 15.79268 15.79268 0 00-1.6911-5.879 13.03 13.03 0 00-3.6406-4.3952 12.48015 12.48015 0 00-2.6764-1.5459 11.3233 11.3233 0 00-3.5574-.8755 19.03838 19.03838 0 00-.8979 4.2666 19.59871 19.59871 0 00-.0167 3.5959 16.0163 16.0163 0 001.6781 5.889 12.87992 12.87992 0 003.6278 4.405 12.33417 12.33417 0 002.6776 1.5449 11.78406 11.78406 0 002.9892.7986l-.0069.0093c-1.0863 1.4806-2.1724 2.9474-3.2852 4.4073q-4.41435 5.83995-8.9947 11.5772l-.0068.0084a19.66491 19.66491 0 00.74921-3.7476 19.40852 19.40852 0 00.018-3.5971 15.79531 15.79531 0 00-1.69121-5.8791 13.02682 13.02682 0 00-3.6407-4.3951 12.4752 12.4752 0 00-2.6763-1.546 11.32956 11.32956 0 00-3.5574-.8754 19.04425 19.04425 0 00-.898 4.2667 19.61688 19.61688 0 00-.0166 3.5959 16.01937 16.01937 0 001.678 5.8888 12.87747 12.87747 0 003.6281 4.405 12.31587 12.31587 0 002.6776 1.5449 11.49913 11.49913 0 003.3334.8392l-.0074.0092q-3.0531 3.856-6.18549 7.6496-4.725 5.7441-9.51611 11.4219l-.0155.0184a21.53106 21.53106 0 00.4337-2.5885 19.40864 19.40864 0 00.0182-3.5972 15.79337 15.79337 0 00-1.6912-5.8788 13.02312 13.02312 0 00-3.6409-4.395 12.4685 12.4685 0 00-2.6761-1.5463 11.33361 11.33361 0 00-3.5576-.8754 19.03781 19.03781 0 00-.8979 4.2669 19.61072 19.61072 0 00-.01659 3.5955 16.01533 16.01533 0 001.67819 5.8891 12.87632 12.87632 0 003.62781 4.405 12.32565 12.32565 0 002.67779 1.5448 11.96026 11.96026 0 002.7045.7652l-.00329.004q-2.65172 3.12525-5.33031 6.2572c-2.9318 3.4314-5.9316 6.8944-8.8278 10.5253-.0047.0058-.0042.0051-.0042.0051.0484-.3354.0887-.6649.1244-.991a19.38264 19.38264 0 00.0182-3.5972 15.795 15.795 0 00-1.6912-5.8789 13.02326 13.02326 0 00-3.6409-4.3951 12.47605 12.47605 0 00-2.676-1.5462 11.32823 11.32823 0 00-3.5576-.8753 19.03326 19.03326 0 00-.8978 4.2666 19.607 19.607 0 00-.01679 3.5959 16.01319 16.01319 0 001.67819 5.8888 12.8761 12.8761 0 003.6279 4.4051 12.336 12.336 0 002.6777 1.5449 13.08176 13.08176 0 001.9869.6263l-.006.0076c-1.6348 2.1599-3.2242 4.3843-4.7214 6.6959-1.18929 1.8417-2.3337 3.7617-3.3639 5.7007-1.0235 1.9441-1.9802 3.8987-2.84839 5.8231-1.77031 3.8646-3.31721 7.6637-4.955 11.3336-.45561 1.0095-.91091 2.0191-1.38591 2.9988q3.02415.6585 6.1074 1.1206.5997-1.409 1.1656-2.8021c1.5824-3.885 2.9811-7.6871 4.5042-11.3478a77.26553 77.26553 0 015.2328-10.5579c1.1788-1.9639 2.4515-3.8967 3.7908-5.8052l.0057-.0077a16.19633 16.19633 0 001.2256 1.8079 15.92757 15.92757 0 002.559 2.5543 18.32625 18.32625 0 006.075 3.1465 21.69641 21.69641 0 007.1557.9326 23.13835 23.13835 0 004.052-.5055 20.88212 20.88212 0 004.5403-1.5066 13.29847 13.29847 0 00-2.0713-3.5533A16.06009 16.06009 0 00435.31555 356.6422zM40.51546 276.2471a4.63005 4.63005 0 01-9.2601 0c.0487-5.9914 9.007-5.9517 9.2601 0 .0595 1.3994 2.2426 1.407 2.1828 0a6.8128 6.8128 0 10-6.8128 6.8129 6.92047 6.92047 0 006.8128-6.8129C42.75806 274.8424 40.57516 274.8454 40.51546 276.2471zM385.51546 170.2471a4.26406 4.26406 0 11-8.52811 0c.0449-5.5179 8.29511-5.4812 8.52811 0 .05489 1.2887 2.06549 1.2957 2.01039 0a6.2743 6.2743 0 10-6.27439 6.2742 6.37362 6.37362 0 006.27439-6.2742C387.58075 168.9536 385.57046 168.956 385.51546 170.2471zM311.51546 442.2471a4.74886 4.74886 0 11-9.49771 0c.05-6.1453 9.2382-6.1044 9.49771 0 .06119 1.4352 2.30039 1.443 2.23909 0a6.98775 6.98775 0 10-6.9878 6.9876 7.09845 7.09845 0 006.9878-6.9876C313.81565 440.8066 311.57685 440.8092 311.51546 442.2471z"></path><path fill="#4b72de" d="M550.87584 343.2471a2.92875 2.92875 0 11-2.9288-2.9288A2.92867 2.92867 0 01550.87584 343.2471zM565.37314 343.2471a2.92884 2.92884 0 11-2.9288-2.9288A2.92861 2.92861 0 01565.37314 343.2471zM536.23184 343.2471a2.92865 2.92865 0 11-2.9286-2.9288A2.9285 2.9285 0 01536.23184 343.2471zM178.87575 69.2471a2.92875 2.92875 0 11-2.9287-2.9288A2.92858 2.92858 0 01178.87575 69.2471zM193.37315 69.2471a2.92885 2.92885 0 11-2.9288-2.9288A2.92867 2.92867 0 01193.37315 69.2471zM164.23185 69.2471a2.9287 2.9287 0 11-2.9286-2.9288A2.9285 2.9285 0 01164.23185 69.2471z"></path><path fill="#fff" d="M214.41665 230.5799a2.21365 2.21365 0 11-2.2137-2.2136A2.21375 2.21375 0 01214.41665 230.5799zM225.37405 230.5799a2.2136 2.2136 0 11-2.21359-2.2136A2.2136 2.2136 0 01225.37405 230.5799zM203.34825 230.5799a2.2136 2.2136 0 11-2.2135-2.2136A2.21358 2.21358 0 01203.34825 230.5799z"></path><path fill="#f8d24a" d="M91.02346,248.4616a14.00872,14.00872,0,1,1,12.6161-7.8703A13.92461,13.92461,0,0,1,91.02346,248.4616Zm.0401-25.4994a11.48975,11.48975,0,1,0,5.0171,1.1606A11.50592,11.50592,0,0,0,91.06356,222.9622Z"></path><path fill="#f8d24a" d="M83.09826 229.9702l1.9496.9503a7.28792 7.28792 0 012.4208-2.8096l1.0468 1.1362a6.66062 6.66062 0 00-2.3089 2.6295c-.7292 1.4959-.4307 2.893.6695 3.4293 1.0618.5176 2.1186.0158 3.4578-1.261 1.8196-1.7728 3.3548-2.6674 5.0342-1.8488 1.6023.781 2.2124 2.617 1.5572 4.6965l1.9496.9503-.6368 1.3065-1.8725-.9127a6.68623 6.68623 0 01-2.0107 2.4095l-1.0173-1.1476a6.05366 6.05366 0 001.9504-2.335c.7908-1.6222.2006-2.6661-.5716-3.0425-1.0038-.4893-1.8856.0456-3.4741 1.5399-1.8686 1.7749-3.4065 2.3813-5.1245 1.5438-1.5251-.7434-2.3886-2.5984-1.659-4.9286l-2.0076-.9786zM529.57346 231.4223a13.25353 13.25353 0 1111.71848 7.7836A13.17367 13.17367 0 01529.57346 231.4223zm21.977-9.9506a10.87038 10.87038 0 10.965 4.7754A10.88552 10.88552 0 00551.55046 221.4717z"></path><path fill="#f8d24a" d="M542.39574 217.3558l-.0551 2.0512a6.89579 6.89579 0 013.3677.9847l-.5686 1.3465a6.30178 6.30178 0 00-3.1687-.9589c-1.5739-.0422-2.6603.762-2.6914 1.9195-.0299 1.1172.8161 1.8308 2.4401 2.4842 2.2394.873 3.611 1.8448 3.5636 3.6117-.0453 1.6858-1.3875 2.9302-3.4351 3.1802l-.055 2.0513-1.3746-.0369.0529-1.9701a6.32445 6.32445 0 01-2.8626-.7881l.59-1.3256a5.72819 5.72819 0 002.7748.7655c1.70672.0458 2.37472-.8713 2.3965-1.6837.0283-1.0561-.7776-1.6062-2.6866-2.389-2.2604-.9143-3.3848-2.0014-3.3363-3.809.043-1.6045 1.3025-3.0747 3.595-3.3588l.0567-2.1122zM70.36916 69.4864A13.25354 13.25354 0 1182.08766 77.27 13.17393 13.17393 0 0170.36916 69.4864zm21.977-9.9506a10.87038 10.87038 0 10.965 4.7754A10.88546 10.88546 0 0092.34616 59.5358z"></path><path fill="#f8d24a" d="M83.19146,55.4199l-.0551,2.0512a6.89579,6.89579,0,0,1,3.3677.9847l-.5686,1.3465a6.30178,6.30178,0,0,0-3.1687-.9589c-1.5739-.0422-2.6603.762-2.6914,1.9195-.0299,1.1172.8161,1.8308,2.4401,2.4842,2.2394.873,3.611,1.8448,3.5636,3.6117-.0453,1.6858-1.3875,2.9302-3.4351,3.1802l-.055,2.0513-1.3746-.0369.0529-1.9701a6.32437,6.32437,0,0,1-2.8626-.7881l.59-1.3256a5.72819,5.72819,0,0,0,2.7748.7655c1.7067.0458,2.3747-.8713,2.3965-1.6837.0283-1.0561-.7776-1.6062-2.6866-2.389-2.2604-.9143-3.3848-2.0014-3.3363-3.809.043-1.6045,1.3025-3.0747,3.595-3.3588l.0567-2.1122Z"></path><path fill="#53b1fb" d="M570.72014 418.4518q-1.6023-1.6023-3.20468-3.2047 1.60227-1.60245 3.20468-3.2047a.7044.7044 0 00-.9956-.9956q-1.6023 1.6023-3.2047 3.2047l-3.0483-3.0483a.7044.7044 0 00-.9956.9956l3.0483 3.0483-3.0483 3.0483a.7044.7044 0 00.9956.9956l3.0483-3.0483q1.6023 1.6023 3.2047 3.2047A.7044.7044 0 00570.72014 418.4518zM106.71136 130.4518l-3.2047-3.2047q1.6023-1.60245 3.2047-3.2047a.7044.7044 0 00-.9956-.9956q-1.6023 1.6023-3.2047 3.2047l-3.0483-3.0483a.7044.7044 0 00-.9956.9956l3.0483 3.0483-3.0483 3.0483a.7044.7044 0 00.9956.9956l3.0483-3.0483q1.6023 1.6023 3.2047 3.2047A.7044.7044 0 00106.71136 130.4518z"></path><rect width="121.972" height="23.653" x="148.65" y="394.086" fill="#f79a45" transform="rotate(180 209.636 405.912)"></rect><rect width="71.185" height="23.653" x="156.976" y="394.086" fill="#f8ad43" transform="rotate(180 192.569 405.912)"></rect><rect width="11.403" height="23.653" x="169.458" y="394.086" fill="#f8d24a" transform="rotate(180 175.16 405.912)"></rect><rect width="121.972" height="3.527" x="148.65" y="414.211" transform="rotate(180 209.636 415.975)" style="mix-blend-mode:multiply" fill="#f79a45" opacity=".5"></rect><rect width="121.972" height="23.653" x="157.499" y="370.433" fill="#f79a45" transform="rotate(180 218.485 382.26)"></rect><rect width="71.185" height="23.653" x="165.825" y="370.433" fill="#f8ad43" transform="rotate(180 201.417 382.26)"></rect><rect width="11.403" height="23.653" x="178.307" y="370.433" fill="#f8d24a" transform="rotate(180 184.008 382.26)"></rect><rect width="121.972" height="3.527" x="157.499" y="390.558" transform="rotate(180 218.485 392.322)" style="mix-blend-mode:multiply" fill="#f79a45" opacity=".5"></rect><rect width="121.972" height="23.653" x="148.65" y="346.78" fill="#f79a45" transform="rotate(180 209.636 358.606)"></rect><rect width="71.185" height="23.653" x="156.976" y="346.78" fill="#f8ad43" transform="rotate(180 192.569 358.606)"></rect><rect width="11.403" height="23.653" x="169.458" y="346.78" fill="#f8d24a" transform="rotate(180 175.16 358.606)"></rect><rect width="121.972" height="3.527" x="148.65" y="366.906" transform="rotate(180 209.636 368.67)" style="mix-blend-mode:multiply" fill="#f79a45" opacity=".5"></rect><rect width="121.972" height="23.653" x="166.348" y="323.127" fill="#f79a45" transform="rotate(180 227.334 334.954)"></rect><rect width="71.185" height="23.653" x="174.674" y="323.127" fill="#f8ad43" transform="rotate(180 210.266 334.954)"></rect><rect width="11.403" height="23.653" x="187.156" y="323.127" fill="#f8d24a" transform="rotate(180 192.857 334.954)"></rect><rect width="121.972" height="3.527" x="166.348" y="343.253" transform="rotate(180 227.334 345.017)" style="mix-blend-mode:multiply" fill="#f79a45" opacity=".5"></rect><rect width="121.972" height="23.653" x="141.608" y="299.474" fill="#f79a45" transform="rotate(180 202.594 311.3)"></rect><rect width="71.185" height="23.653" x="149.934" y="299.474" fill="#f8ad43" transform="rotate(180 185.527 311.3)"></rect><rect width="11.403" height="23.653" x="162.416" y="299.474" fill="#f8d24a" transform="rotate(180 168.117 311.3)"></rect><rect width="121.972" height="3.527" x="141.608" y="319.6" transform="rotate(180 202.594 321.364)" style="mix-blend-mode:multiply" fill="#f79a45" opacity=".5"></rect><path fill="#4b72de" d="M319.153,287.0505H460.005a11.9749,11.9749,0,0,1,11.9749,11.9749V406.8567a11.9749,11.9749,0,0,1-11.9749,11.9749H319.15295a11.9748,11.9748,0,0,1-11.9748-11.9748V299.0254A11.9749,11.9749,0,0,1,319.153,287.0505Z"></path><path fill="#a6d2ff" d="M461.54,287.0504H317.61815a10.44,10.44,0,0,0,0,20.88H461.54a10.44,10.44,0,1,0,0-20.88Z"></path><path fill="#4b72de" d="M461.58,304.3828h-3.5772v-1H461.58c.4648,0,.9287-.0117,1.3857-.0449l.0723.9981C462.55746,304.3711,462.06815,304.3828,461.58,304.3828Zm-8.5772,0h-5v-1h5Zm-10,0h-5v-1h5Zm-10,0h-5v-1h5Zm-10,0h-5v-1h5Zm-10,0h-5v-1h5Zm-10.001,0h-5v-1h5Zm-10,0h-5v-1h5Zm-9.999,0h-5v-1h5Zm-10,0h-5v-1h5Zm-10,0h-5v-1h5Zm-10,0h-5v-1h5Zm-10,0h-5v-1h5Zm-10,0h-5v-1h5Zm-10.0034-.0058-3.0391-.0049c-.7221,0-1.3965.001-1.9585.0039l-.0049-1c.563-.0029,1.2393-.0039,1.9634-.0039l3.042.0049Zm-10.0801-1.1543a9.45757,9.45757,0,0,1-2.4004-3.1953c-.1821-.3291-.3706-.669-.5742-1.0157l.8623-.5058c.208.3535.4004.7002.5864,1.0361a8.60992,8.60992,0,0,0,2.1255,2.8799Zm154.9858-.8389-.7421-.6699a4.708,4.708,0,0,0,1.0107-1.9443l.96481.2617A5.687,5.687,0,0,1,467.90505,302.3838Z"></path><path fill="#a6d2ff" d="M471.98005,374.1753h-69.1362a13.26477,13.26477,0,0,1-13.2648-13.2647h0a13.26482,13.26482,0,0,1,13.2648-13.2649h69.1362Z"></path><path fill="#4b72de" d="M470.65415,372.9278h-5v-1h5Zm-10,0h-5v-1h5Zm-10,0h-5v-1h5Zm-10,0h-5v-1h5Zm-10,0h-5v-1h5Zm-10,0h-5v-1h5Zm-10,0h-5v-1h5Zm-10.0742-.8516a13.36463,13.36463,0,0,1-4.4346-2.6416l.6699-.7422a12.39949,12.39949,0,0,0,4.1045,2.4443Zm-7.461-6.8369a10.99091,10.99091,0,0,1-.8857-4.3291c0-.2647.0088-.5274.0283-.7871l.998.0742q-.02625.35445-.0263.7129a10.00512,10.00512,0,0,0,.8056,3.9365Zm1.5703-9.541-.8574-.5137a12.399,12.399,0,0,1,3.5352-3.7734l.5761.8183A11.40357,11.40357,0,0,0,394.68925,355.6983Zm7.6153-5.4297-.2344-.9727a14.62851,14.62851,0,0,1,3.4199-.4033h1.666v1h-1.666A13.5736,13.5736,0,0,0,402.30455,350.2686Zm64.8515-.376h-5v-1h5Zm-10,0h-5v-1h5Zm-10,0h-5v-1h5Zm-10,0h-5v-1h5Zm-10,0h-5v-1h5Zm-10,0h-5v-1h5Z"></path><circle cx="403.862" cy="360.911" r="6.246" fill="#4b72de"></circle><polygon fill="#f0f6ff" points="464.076 260.693 418.574 215.191 339.281 294.484 430.286 294.484 464.076 260.693"></polygon><path fill="#7ea8c4" d="M418.57425,221.9714l-72.5119,72.5122h6.781l56.6524-56.6525a15.2746,15.2746,0,0,0,19.03771.8806l12.02209,12.022a15.27388,15.27388,0,0,0,.8803,19.0373l-24.7126,24.7126h6.781l33.7911-33.7912Zm-37.6724,51.9414a17.28727,17.28727,0,0,0-2.9067,20.5708H408.261a17.28488,17.28488,0,0,0-27.3591-20.5708Z"></path><polygon fill="#f0f6ff" points="452.915 300.048 478.362 274.602 432.86 229.1 361.911 300.048 452.915 300.048"></polygon><path fill="#7ea8c4" d="M432.85946,235.8807l-64.16741,64.1674h6.781l48.3079-48.3079a15.27405,15.27405,0,0,0,19.0376.8806l12.0222,12.022a15.27386,15.27386,0,0,0,.8802,19.0373l-16.3679,16.368h6.781l25.44641-25.4465ZM395.187,287.8219a17.19461,17.19461,0,0,0-5.0442,12.2262h34.5411a17.27062,17.27062,0,0,0-29.4969-12.2262Z"></path><rect width="136.323" height="31.689" x="321.418" y="268.359" fill="#f0f6ff"></rect><path fill="#7ea8c4" d="M326.21246,273.1542v26.8939h4.795v-8.0147a15.27418,15.27418,0,0,0,12.839-14.0844h91.46509a15.27416,15.27416,0,0,0,12.839,14.0844v8.0147h4.79491V273.1542Zm63.36659,10.0895a17.279,17.279,0,0,0-17.266,16.8044h34.532A17.27909,17.27909,0,0,0,389.57905,283.2437Z"></path><circle cx="447.019" cy="141.513" r="50.496" fill="#f79a45" transform="rotate(-86.406 447.02 141.513)"></circle><circle cx="447.019" cy="141.513" r="41.554" fill="#f8ad43" transform="rotate(-76.837 447.02 141.513)"></circle><path fill="#f8d24a" d="M461.00535,102.3788l-43.703,68.1679a41.75143,41.75143,0,0,0,5.6855,4.8566l44.7985-69.8769A41.3346,41.3346,0,0,0,461.00535,102.3788Zm11.3259,6.1889-44.6886,69.7051a41.33047,41.33047,0,0,0,18.3127,4.7678l38.3664-59.8436A41.72068,41.72068,0,0,0,472.33125,108.5677Zm-24.248-8.5815L409.717,159.83a41.54185,41.54185,0,0,0,4.33341,6.9655l42.18359-65.7979A41.608,41.608,0,0,0,448.08325,99.9862Z" opacity=".55"></path><path fill="#ffe900" d="M444.85235,177.5836v-8.5895c-5.3835-.0852-10.9528-1.6161-14.2023-3.7422l2.2282-5.6981a26.38064,26.38064,0,0,0,13.3669,3.6567c6.5906,0,11.0461-3.4869,11.0461-8.3341,0-4.678-3.6201-7.5692-10.4889-10.1209-9.4684-3.4015-15.31689-7.3141-15.31689-14.713,0-7.0592,5.47689-12.4169,14.01659-13.6926v-8.5896h5.756v8.2496a26.47727,26.47727,0,0,1,12.0665,2.9765l-2.3199,5.613a23.97551,23.97551,0,0,0-11.6966-2.8916c-7.147,0-9.8392,3.9124-9.8392,7.3143,0,4.4223,3.4343,6.6336,11.5101,9.695,9.5609,3.5721,14.3881,7.9948,14.3881,15.5637,0,6.719-5.1054,13.0121-14.6663,14.4581v8.8447Z"></path><g clip-path="url(#a)"><path fill="#fff" d="M421.60475,209.8286s-19.3071,19.6764-33.6959,35.4843c-5.3695,5.8989-11.4267-4.3542-13.5131-9.0896-4.0401-9.1713-7.4944-18.7567-14.2938-26.344-11.4271-12.7507-28.2791-18.6994-44.79249-21.2815-16.55181-2.5883-33.60171-4.2292-49.95191-.5772a93.63848,93.63848,0,0,0-30.54109,13.242c-14.21221,9.2058-26.651,21.4996-38.17381,33.6999-13.122,13.8947-39.7628,35.7448-27.2198,57.2408,5.6019,9.5992,68.2513,41.4534,68.2513,41.4534l6.6534-8.3161s-35.5546-40.4303-37.1528-43.5875c-1.5982-3.1576,21.84271-19.218,28.2353-13.358,6.3932,5.8606,15.83441,55.2723,15.83441,55.2723,35.54579,28.1026,79.31339.0003,79.31339.0003,2.4931-1.6007,3.5744-16.4224,4.1694-19.2308,2.1855-10.3031.3221-19.5254,3.73521-29.3584,1.51059-4.3511,5.04159-5.5793,9.49039-4.0184,14.7013,5.1569,27.1331,28.7975,44.2071,14.5088,11.2912-9.4489,16.8628-24.7118,22.9537-37.5577a277.1547,277.1547,0,0,0,13.2565-32.8523C424.74685,214.1319,421.60475,209.8286,421.60475,209.8286Z"></path><path fill="#53b1fb" d="M428.63375,214.2026a14.83032,14.83032,0,0,1-6.1726-4.8747.98527.98527,0,0,0-.1438-.1264,1.11055,1.11055,0,0,0-.173-.1519l-.0117-.0085a.89525.89525,0,0,0-1.22919.0861q-12.77116,13.0236-25.24321,26.3396c-2.7515,2.9396-6.3812,8.703-10.3015,9.8203-4.79,1.365-8.0241-5.1786-9.8535-9.0187-3.9473-8.2853-6.8364-17.0037-12.48279-24.3784-10.14121-13.2451-26.34271-20.1138-42.28481-23.3233-19.4671-3.9191-40.6931-5.848-60.0334-.3932-17.7691,5.0119-33.1629,15.8358-46.6845,28.1147-12.6338,11.4726-25.4155,24.0916-36.3527,37.228-7.969,9.5713-15.6682,22.0998-11.0892,34.9183,2.7024,7.5655,9.93961,11.6582,16.38361,15.8064,17.37459,11.185,35.80479,20.9046,54.21219,30.2722a1.01024,1.01024,0,0,0,1.2019-.155q3.32655-4.1583,6.6533-8.3162a1.02593,1.02593,0,0,0,0-1.4026q-9.02925-10.26915-17.9771-20.61c-4.2578-4.9204-8.509-9.848-12.6931-14.8315-1.5887-1.8922-6.5257-6.1399-5.88-8.5989.5836-2.2229,5.2863-4.8549,6.9304-5.9575a45.65657,45.65657,0,0,1,10.338-5.3402c7.44-2.5743,10.1018.1495,12.5878,6.7574,4.65761,12.3797,7.3355,25.6311,10.06,38.5434.5548,2.6289.5589,6.9514,1.8891,9.3072,1.3432,2.3791,5.5116,4.279,7.7868,5.5816a57.13271,57.13271,0,0,0,13.3121,5.5367,62.60129,62.60129,0,0,0,19.3017,2.0218.99027.99027,0,0,0,1.6344-.0789,86.25562,86.25562,0,0,0,26.6221-6.4188c3.7431-1.5308,8.0982-3.1268,11.3681-5.5699,2.7976-2.09,3.1928-5.4503,3.7739-8.8039a193.86838,193.86838,0,0,0,2.8333-22.1198c.2966-5.3624-.7118-15.8414,3.0617-19.9648,4.9397-5.3982,11.8073-.4469,16.3261,2.8665,6.5487,4.8019,12.7621,11.5754,20.8999,13.5996,8.0561,2.0039,14.7699-2.7257,19.973-8.4581,7.3721-8.1217,11.8156-18.3554,16.3143-28.2203,5.7759-12.6648,11.4478-25.2236,15.8352-38.4584A1.01664,1.01664,0,0,0,428.63375,214.2026Zm-121.8652-25.8585c1.725,5.8774,1.2555,12.4911.0072,18.4111-4.6972-1.3812-12.6932-3.5397-17.3188-1.1058.0033-.047.0041-.0936.00751-.1406.092-1.2738-1.89211-1.2679-1.98361,0-.0136.1874-.0168.3739-.02939.5613-4.47441-3.0852-13.06921-.7694-18.01631.6851-1.24969-5.9265-1.7193-12.5484.0126-18.4304,2.3128-.4262,4.65071-.788,7.0396-1.015A135.19724,135.19724,0,0,1,306.76855,188.3441ZM269.101,332.2573c-5.3086-1.7572-15.4947-5.1514-17.2907-10.8494-3.4124-10.827-4.7054-22.5486-7.714-33.5392-1.6011-5.848-3.5972-19.9254-10.9904-21.5838-7.7951-1.7485-21.7458,6.409-25.9359,12.7648-3.0614,4.6437,5.6127,11.3603,8.339,14.5722,7.8359,9.2314,15.7983,18.3562,23.7738,27.467a25.84843,25.84843,0,0,0,3.2456,3.703,3.68107,3.68107,0,0,1,.541.5453c-1.4286,1.9568-3.3723,3.6599-4.5945,5.7408a10.187,10.187,0,0,1-1.1486,1.3062c-8.217-2.9052-16.3032-8.5294-23.9111-12.6912-11.4666-6.2727-23.01-12.6293-33.79169-20.0399-3.25091-2.2344-7.10351-4.6054-9.34411-7.9502-6.097-9.101-2.358-20.6103,3.0005-28.9799,4.9748-7.7705,11.5545-14.3739,18.01861-20.8948,6.916-6.9766,13.56379-14.2156,20.70559-20.9666,15.8645-14.9962,33.9672-27.6236,55.2793-32.1394-1.6213,6.3192-.9722,13.3333.44411,19.553a1.00255,1.00255,0,0,0,1.22009.6926c4.1506-1.2272,15.1725-4.7554,18.2887-.4693a.94281.94281,0,0,0,.0834.0991c-.9281,21.5581,4.4979,42.5668,5.5627,64.0389,1.0394,20.9593-6.1196,41.5532-2.5985,62.4433A59.98247,59.98247,0,0,1,269.101,332.2573Zm157.1064-113.767c-.79889,3.5708-2.6065,7.2851-3.953,10.6902-4.2855,10.8378-9.2643,21.4699-14.295,31.9839-4.4536,9.3075-10.0483,20.2669-19.2662,25.6873-9.31369,5.4766-17.7768-.8655-25.0171-6.6055-7.44459-5.9018-22.4465-18.5751-26.868-3.1723-2.6141,9.1053-1.8948,19.2432-3.2725,28.5776-.7018,4.7559-.2003,13.6138-3.7189,17.31-2.1124,2.2191-6.6966,3.6376-9.4168,4.8324a89.21113,89.21113,0,0,1-21.2608,6.4035c-2.27559.376-4.5708.6306-6.8712.786-3.79139-21.5882,3.9133-43.0896,2.4509-64.7919-1.3997-20.7751-6.3877-41.1783-5.3929-62.0694,3.5038-3.6681,13.9172-.3431,17.9375.8457a1.002,1.002,0,0,0,1.22011-.6926c1.42429-6.255,2.07209-13.2974.42029-19.6414q3.0828.4323,6.142.9203c10.9844,1.7738,21.92,4.8241,31.53371,10.571,10.30749,6.1616,17.25309,14.9545,22.22769,25.7462,3.0412,6.598,5.3204,15.9242,11.4845,20.5329,5.4746,4.0932,8.822-.9675,12.475-4.9185q9.82395-10.62555,19.8947-21.0198,4.4385-4.60725,8.91211-9.1812c1.064,1.1417,2.26459,2.1042,3.37029,3.2247C426.74905,216.3392,426.88125,215.4777,426.20735,218.4903Z"></path><path fill="#2c4482" d="M330.55785,323.6674s-45.3656,21.1766-79.31339,0c0,0-25.95651,35.6848-24.35811,68.786,1.5982,33.1017,16.7814,62.1601,10.7878,74.0017-5.9928,11.8417-13.1852,41.4089-6.7925,69.3779a279.30582,279.30582,0,0,0,15.1835,47.5032h10.7881s5.19421-72.5421,13.1851-91.1883c7.99111-18.6459,12.7862-41.0212,14.3845-61.7982,1.59861-20.777,4.26161-36.3691,6.3929-37.8963,2.13071-1.5265,10.2256,60.8045,6.4444,78.3852-3.7806,17.5799-4.31369,68.3683,13.8001,112.4976h12.7859s7.4347-87.6538,12.6334-108.6765c4.11491-16.6396,8.1168-109.0093-4.7472-147.7249Q331.16535,325.22735,330.55785,323.6674Z"></path><path fill="#fea086" d="M256.45346 323.6674c-3.19611 0-12.12591 1.6732-12.12591 1.6732l-6.6534 8.3161a15.88907 15.88907 0 0010.78831.7989c6.393-1.5981 12.38639 3.9956 15.58269 3.1965C267.24215 336.8532 259.65025 323.6674 256.45346 323.6674zM453.38185 204.0881c-5.33 2.255-14.7613 0-14.7613 0s6.76591-1.8452 5.331-3.0755c-1.4349-1.2299-10.8659 2.0502-14.1462 2.0502-3.2805 0-8.2006 6.7658-8.2006 6.7658 1.8449 6.7656 6.7654 5.3303 6.7654 5.3303a13.09014 13.09014 0 0110.4557-3.0751c6.56061.8201 20.7069-4.5106 20.7567-6.8014C459.63235 202.9921 458.71285 201.8327 453.38185 204.0881zM280.337 143.1a16.6936 16.6936 0 00-7.6715 6.4867c-2.0868 3.5462-2.3683 7.8802-1.9877 11.9771.1233 1.3285.2464 2.7127.3873 4.1294.7991 8.0146 2.1927 17.0668 7.6885 22.8553 4.3814 4.6133 10.6582 5.4026 16.6866 4.5094 11.8329-1.7532 15.1195-21.6941 15.1195-21.6941s1.5338-8.5461 0-15.996C307.65055 141.2358 292.00855 137.8503 280.337 143.1z"></path><path fill="#003a76" d="M306.66055,140.3994c-1.64309-1.8077-1.4785-2.3009-1.3145-6.081.1646-3.7798-7.2315-4.2731-9.5319-3.1226-2.3014,1.1504-4.931-.6572-6.0749-4.4373-1.1441-3.7799-12.4964-.493-14.3045,2.7937-1.8081,3.2873-2.3012,7.7246-3.9442,8.2175a6.60061,6.60061,0,0,0-4.0497,6.4097c.05961,3.6157-2.0313,8.3818-3.5108,10.6824-1.4787,2.3009-1.15,4.2731,1.6438,7.6344a19.03459,19.03459,0,0,0,2.888,2.9173c-.4559,3.29-1.0786,8.5775-.7512,10.978.4929,3.6157,1.29581,7.5601-.0918,12.4904-1.38739,4.9302,5.6792,10.4087,9.2953,10.7924,3.6154.383,2.6289,5.4781,11.5039,5.1496,8.8753-.329,9.5321-5.5333,12.3261-5.1496,2.794.383,8.3815-2.4104,10.5181-6.5192,2.1368-4.1089-.8217-14.6272-.8217-18.5712,0-2.6512.2604-6.4494-.0548-8.4224l.0025-.0003s3.66821-6.2046,4.3259-8.834c.6572-2.6294-2.3014-5.9167-2.6766-8.8745C311.66246,145.4943,308.30415,142.2072,306.66055,140.3994Zm-5.2242,35.1261a6.45283,6.45283,0,0,1-.6974.8608,2.40943,2.40943,0,0,1-.5318.4004,4.21894,4.21894,0,0,1-3.1128-.1103,35.39523,35.39523,0,0,0-15.8103-.7881,6.31643,6.31643,0,0,1-2.6661.1249,4.57375,4.57375,0,0,1-1.6037-.8591c-3.2296-2.4734-4.8034-6.4868-6.22979-10.2959a10.0648,10.0648,0,0,1-.87911-3.7855c.0916-2.8329,2.4632-4.9914,4.65011-6.7941a16.6105,16.6105,0,0,1,5.47479-3.4215,35.05608,35.05608,0,0,1,5.6784-.719,15.755,15.755,0,0,0,6.0683-2.1389c.7832-.4752,1.9169-.9729,2.4837-.253a2.2289,2.2289,0,0,1,.3167,1.0167c.3359,1.8725,1.7444,3.3533,3.1705,4.6122a42.05268,42.05268,0,0,0,5.6935,4.2287C311.44635,162.559,305.23155,170.226,301.43635,175.5255Z"></path><path fill="#fea086" d="M287.76065,178.1998c-1.8619,0-4.23019,1.2703-3.9457,2.3943.114.4498.6522.8757,1.8182,1.1879,1.5612.4179,6.4605.9747,7.2222-1.117C293.51275,178.8566,291.70505,178.1998,287.76065,178.1998Z"></path></g><rect width="121.972" height="21.707" x="212.627" y="398.162" fill="#f79a45"></rect><rect width="71.185" height="21.707" x="255.088" y="398.162" fill="#f8ad43"></rect><rect width="11.403" height="21.707" x="302.389" y="398.162" fill="#f8d24a"></rect><rect width="121.972" height="3.237" x="212.627" y="416.632" style="mix-blend-mode:multiply" fill="#f79a45" opacity=".5"></rect><rect width="121.972" height="21.707" x="203.778" y="376.455" fill="#f79a45"></rect><rect width="71.185" height="21.707" x="246.239" y="376.455" fill="#f8ad43"></rect><rect width="11.403" height="21.707" x="293.54" y="376.455" fill="#f8d24a"></rect><rect width="121.972" height="3.237" x="203.778" y="394.925" style="mix-blend-mode:multiply" fill="#f79a45" opacity=".5"></rect><rect width="121.972" height="21.707" x="212.627" y="354.748" fill="#f79a45"></rect><rect width="71.185" height="21.707" x="255.088" y="354.748" fill="#f8ad43"></rect><rect width="11.403" height="21.707" x="302.389" y="354.748" fill="#f8d24a"></rect><rect width="121.972" height="3.237" x="212.627" y="373.218" style="mix-blend-mode:multiply" fill="#f79a45" opacity=".5"></rect></g></svg>