<?xml version="1.0" encoding="UTF-8"?>
<svg width="1200pt" height="1200pt" version="1.1" viewBox="0 0 1200 1200" xmlns="http://www.w3.org/2000/svg">
 <path d="m435.36 924-28.441-49.32 164.64-96v-188.64h56.879l0.003906 190.68 164.64 94.559-28.441 48.723-165.84-94.801zm121.92-516c-0.23828 0.40625-0.67188 0.65625-1.1406 0.65625s-0.90234-0.25-1.1406-0.65625c-15.969-27.828-30.234-56.602-42.719-86.16-39.27 21.078-76.406 45.914-110.88 74.16-9.7773 8.1133-15.414 20.176-15.359 32.879v60h427.92v-60c0.054687-12.703-5.582-24.766-15.359-32.879-34.492-27.82-71.582-52.254-110.76-72.961-12.484 29.559-26.75 58.332-42.719 86.16-0.23828 0.40625-0.67188 0.65625-1.1406 0.65625s-0.90234-0.25-1.1406-0.65625c-3.1211-9.6016-15.48-42.719-34.078-40.32-0.59766 0.30078-1.3242 0.058594-1.6211-0.53906-0.30078-0.59766-0.058594-1.3203 0.53906-1.6211 22.418-17.246 43.59-36.055 63.359-56.277v-39.121c5.9844-10.258 10.051-21.523 12-33.242 4.6797 0 10.801-6.9609 17.398-30.238 8.7617-30.84 0-36-7.8008-36 19.68-90.238-31.078-90.602-31.078-90.602-4.0156-11.191-11.809-20.637-22.035-26.703-10.23-6.0664-22.254-8.3789-34.004-6.5352-25.508 2.6289-51.227 2.3906-76.68-0.71875-0.011719 7.1367 3.1562 13.91 8.6406 18.48-45.359 27.719-34.922 88.559-30.84 106.08-7.6797 0-15.719 5.8789-7.1992 36 6.6016 23.281 12.719 29.879 17.398 30.238 1.9453 11.719 6.0117 22.984 12 33.242v38.641c19.77 20.227 40.945 39.031 63.359 56.277 0.59766 0.30078 0.83984 1.0234 0.53906 1.6211-0.29688 0.59766-1.0234 0.83984-1.6172 0.53906-18.48-2.3984-30.723 30.723-33.84 40.32zm-120.72 684h-0.003906c0.046875-12.609-5.543-24.582-15.238-32.641-38.676-30.84-80.559-57.434-124.92-79.32-1.3281-0.64453-2.168-2-2.1602-3.4805v-40.559c5.9844-10.219 10.051-21.441 12-33.121 4.6797 0 10.68-6.8398 17.281-30.121 8.6406-30.602 0-36-7.8008-36 19.559-89.879-30.84-90.121-30.84-90.121v0.003906c-3.9727-11.199-11.738-20.652-21.953-26.727-10.215-6.0703-22.23-8.375-33.965-6.5156-25.387 2.6172-50.988 2.375-76.32-0.71875-0.26953 7.4297 2.9219 14.566 8.6406 19.32-45.121 27.48-34.801 88.199-30.719 105.6-7.6797 0-15.602 5.8789-7.1992 36 6.6016 23.16 12.719 29.762 17.281 30.121l-0.003906-0.003906c1.9492 11.68 6.0156 22.902 12 33.121v40.441c0.007813 1.4766-0.83203 2.832-2.1602 3.4805-44.285 21.938-86.086 48.57-124.68 79.438-9.7422 8.0391-15.379 20.012-15.359 32.641v60h426zm753 0h-0.003906c0.046875-12.609-5.543-24.582-15.238-32.641-38.637-31.133-80.52-58.008-124.92-80.16-1.3281-0.64453-2.168-2-2.1602-3.4805v-39.719c5.9844-10.219 10.051-21.441 12-33.121 4.6797 0 10.68-6.8398 17.281-30.121 8.6406-30.602 0-36-7.8008-36 19.559-89.879-30.84-90.121-30.84-90.121v0.003906c-3.9727-11.199-11.738-20.652-21.953-26.727-10.215-6.0703-22.23-8.375-33.965-6.5156-25.387 2.6172-50.988 2.375-76.32-0.71875-0.26953 7.4297 2.9219 14.566 8.6406 19.32-45.121 27.48-34.801 88.199-30.719 105.6-7.6797 0-15.602 5.8789-7.1992 36 6.6016 23.16 12.719 29.762 17.281 30.121l-0.003906-0.003906c1.9492 11.68 6.0156 22.902 12 33.121v40.441c0.007813 1.4766-0.83203 2.832-2.1602 3.4805-44.285 21.938-86.086 48.57-124.68 79.438-9.6992 8.0625-15.289 20.031-15.242 32.641v60h426z"/>
</svg>
