<?xml version="1.0" encoding="UTF-8"?>
<svg width="1200pt" height="1200pt" version="1.1" viewBox="0 0 1200 1200" xmlns="http://www.w3.org/2000/svg">
 <g>
  <path d="m594 717.6h-20.398c-6 0-13.199-2.3984-16.801-7.1992-4.8008-4.8008-6-10.801-6-18 1.1992-12 12-20.398 24-20.398h24c7.1992 0 13.199 4.8008 14.398 12 1.1992 4.8008 4.8008 7.1992 9.6016 7.1992h27.602c2.3984 0 6-1.1992 7.1992-3.6016 2.3984-2.3984 2.3984-4.8008 2.3984-7.1992-2.3984-28.801-25.199-50.398-52.801-54v-22.801c0-4.8008-4.8008-9.6016-9.6016-9.6016h-27.602c-6 0-9.6016 4.8008-9.6016 9.6016v24c-34.801 7.1992-60 39.602-56.398 75.602 3.6016 34.801 34.801 62.398 72 62.398h18c6 0 13.199 2.3984 16.801 7.1992 4.8008 4.8008 6 10.801 6 18-1.1992 12-12 20.398-24 20.398h-24c-7.1992 0-13.199-4.8008-14.398-12-1.1992-4.8008-4.8008-7.1992-9.6016-7.1992h-28.797c-2.3984 0-6 1.1992-7.1992 3.6016-1.1992 2.3984-2.3984 4.8008-2.3984 7.1992 2.3984 28.801 25.199 50.398 52.801 54v22.801c0 4.8008 4.8008 9.6016 9.6016 9.6016h27.602c6 0 9.6016-4.8008 9.6016-9.6016v-24c30-7.1992 52.801-31.199 56.398-61.199 2.3984-20.398-4.8008-38.398-18-54-12.008-14.402-31.207-22.801-50.406-22.801z"/>
  <path d="m1024.8 600-291.6 140.4c-12 6-20.398 20.398-15.602 33.602 4.8008 16.801 24 25.199 38.398 16.801l292.8-141.6 13.199 27.602c9.6016 19.199 36 18 44.398-1.1992l34.801-81.602c6-13.199-1.1992-28.801-15.602-33.602l-86.398-24c-20.398-6-37.199 15.602-28.801 33.602z"/>
  <path d="m1155.6 736.8h-106.8c-8.3984 0-14.398 6-14.398 14.398v382.8c0 8.3984 6 14.398 14.398 14.398h106.8c8.3984 0 14.398-6 14.398-14.398v-382.8c0-7.1992-6-14.398-14.398-14.398z"/>
  <path d="m982.8 811.2h-106.8c-8.3984 0-14.398 6-14.398 14.398v308.4c0 8.3984 6 14.398 14.398 14.398h106.8c8.3984 0 14.398-6 14.398-14.398v-308.39c0-7.2031-6-14.402-14.398-14.402z"/>
  <path d="m810 885.6h-106.8c-8.3984 0-14.398 6-14.398 14.398v234c0 8.3984 6 14.398 14.398 14.398h106.8c8.3984 0 14.398-6 14.398-14.398v-234c0-7.1992-7.1992-14.398-14.398-14.398z"/>
  <path d="m637.2 960h-106.8c-8.3984 0-14.398 6-14.398 14.398v159.6c0 8.3984 6 14.398 14.398 14.398h106.8c8.3984 0 14.398-6 14.398-14.398l0.003906-159.6c0-8.3984-7.2031-14.398-14.402-14.398z"/>
  <path d="m717.6 506.4 27.602-72c6-15.602-6-32.398-22.801-32.398h-336l-73.199 182.4-15.602-128.4h10.801c6 0 10.801-4.8008 10.801-10.801v-34.801c0-6-4.8008-10.801-10.801-10.801l-56.402 0.003906c-6 0-10.801 4.8008-10.801 10.801v33.598c0 6 4.8008 10.801 10.801 10.801h10.801l-15.602 128.4-70.801-177.6c-67.199 14.402-118.8 69.602-126 138l-20.398 195.6c-2.3984 19.199 10.801 36 30 40.801 21.602 4.8008 49.199 8.3984 78 10.801l18 309.6c1.1992 26.398 22.801 46.801 49.199 46.801h150c26.398 0 48-20.398 49.199-46.801l25.199-531.6c0-26.398 21.602-48 49.199-48h217.2c9.6055 0.003906 18.004-5.9961 21.605-14.398z"/>
  <path d="m438 210c0 87.48-70.918 158.4-158.4 158.4-87.484 0-158.4-70.918-158.4-158.4s70.918-158.4 158.4-158.4c87.48 0 158.4 70.918 158.4 158.4"/>
 </g>
</svg>
